<?xml version="1.0" standalone="no"?>
<!DOCTYPE svg PUBLIC "-//W3C//DTD SVG 1.1//EN" "http://www.w3.org/Graphics/SVG/1.1/DTD/svg11.dtd" >
<svg xmlns="http://www.w3.org/2000/svg">
<metadata>
Created by FontPrep 20130207 at Mon May 12 12:32:06 2014
 By Nathan Ford
Font software Copyright (c) 2012 Intel Corporation. Licensed under the Apache License, Version 2.0.  http://www.apache.org/licenses/LICENSE-2.0
</metadata>
<defs>
<font id="791e63096756eb788d8817d48f671383" horiz-adv-x='1024' >
  <font-face 
    font-family="ClearSans-Bold"
    font-weight="700"
    font-stretch="normal"
    units-per-em="2048"
    panose-1="2 0 8 3 0 0 0 0 0 0"
    ascent="1489"
    descent="-559"
    x-height="1049"
    cap-height="1384"
    bbox="-162 -395.091 2075 1942"
    underline-thickness="102"
    underline-position="-103"
    unicode-range="U+000D-00FF"
  />
<missing-glyph horiz-adv-x="1024" 
 />
    <glyph glyph-name=".notdef" horiz-adv-x="1024" 
 />
    <glyph glyph-name="uni0000" horiz-adv-x="0" 
 />
    <glyph glyph-name="uni0000" horiz-adv-x="0" 
 />
    <glyph glyph-name="uni000D" unicode="&#xd;" horiz-adv-x="492" 
 />
    <glyph glyph-name="space" unicode=" " horiz-adv-x="492" 
 />
    <glyph glyph-name="exclam" unicode="!" horiz-adv-x="584" 
d="M292 293q90 0 126 -35t37 -120q-1 -84 -39 -118t-128 -34t-125 36q-34 36 -34 118q0 81 36 117q37 36 127 36zM401 440h-215l-34 944h280z" />
    <glyph glyph-name="quotedbl" unicode="&#x22;" horiz-adv-x="977" 
d="M367 772h-185l-45 612h275zM795 772h-185l-45 612h275z" />
    <glyph glyph-name="numbersign" unicode="#" horiz-adv-x="1405" 
d="M614 821l-69 -258h248l69 258h-248zM1217 563v-180h-279l-104 -383h-193l104 383h-247l-105 -383h-192l104 383h-233v180h280l70 258h-234v180h283l104 385h193l-104 -385h247l105 385h192l-104 -385h229v-180h-278l-70 -258h232z" />
    <glyph glyph-name="dollar" unicode="$" horiz-adv-x="1280" 
d="M903 408q-1 52 -35 84t-127 61v-272q74 8 118 42q44 33 44 85zM414 971q0 -39 31 -68t116 -53v237q-147 -11 -147 -116zM1169 430q-1 -166 -113 -258t-315 -109v-196h-180v192q-310 31 -438 232l205 139q37 -48 99 -94t134 -53v315q-161 40 -246 87q-168 93 -168 262
q-1 169 111 257t303 103v106h180v-106q288 -22 410 -224l-193 -137q-34 46 -90 86t-127 51v-280q191 -50 270 -97t117 -112q41 -64 41 -164z" />
    <glyph glyph-name="percent" unicode="%" horiz-adv-x="2163" 
d="M334 958q0 -148 38 -204t112 -56q75 0 109 63t34 199q1 136 -31 205q-32 68 -114 68t-114 -65q-34 -62 -34 -210zM1686 150q76 0 110 64t33 226q-1 164 -61 219q-28 25 -96 25t-102 -64t-34 -212q0 -146 38 -202q36 -56 112 -56zM872 964q0 -216 -101 -331t-289 -115
t-291 114t-103 334q0 218 101 332t291 115q190 0 292 -116q100 -117 100 -333zM590 -51l747 1487h238l-750 -1487h-235zM1683 -31q-187 0 -290 114t-103 333q0 220 100 334t292 114t293 -115q100 -115 100 -333q-1 -218 -103 -333q-102 -114 -289 -114z" />
    <glyph glyph-name="ampersand" unicode="&#x26;" horiz-adv-x="1417" 
d="M358 362q0 -80 67 -132q68 -50 190 -50t219 76l-308 356q-92 -56 -130 -113t-38 -137zM764 1128q0 40 -34 68q-34 27 -97 27q-63 -1 -98 -35t-35 -83t22 -88t72 -95q131 88 156 138q14 28 14 68zM238 1085q0 160 106 244t286 84q180 1 288 -73q106 -74 106 -211
t-116 -255q-54 -56 -165 -129l263 -309q64 87 102 230l227 -52q-50 -209 -176 -356l217 -258h-327l-72 86q-71 -48 -157 -82t-216 -33q-238 -1 -375 109t-137 293q0 131 58 217t231 194q-143 176 -143 301z" />
    <glyph glyph-name="quotesingle" unicode="'" horiz-adv-x="549" 
d="M367 772h-185l-45 612h275z" />
    <glyph glyph-name="parenleft" unicode="(" horiz-adv-x="856" 
d="M113 564q0 526 409 958h293q-217 -204 -337 -438t-120 -523t120 -520t337 -436h-293q-409 433 -409 959z" />
    <glyph glyph-name="parenright" unicode=")" horiz-adv-x="856" 
d="M498 561q0 289 -120 523t-337 438h293q409 -432 409 -958t-409 -959h-293q217 205 337 436t120 520z" />
    <glyph glyph-name="asterisk" unicode="*" horiz-adv-x="911" 
d="M791 834l-259 159l11 -260h-174l12 260l-260 -159l-90 149l282 141l-282 146l90 149l258 -159l-10 260h174l-13 -260l261 159l90 -151l-283 -142l283 -143z" />
    <glyph glyph-name="plus" unicode="+" horiz-adv-x="1427" 
d="M817 479v-477h-205v477h-479v205h479v479h205v-479h477v-205h-477z" />
    <glyph glyph-name="comma" unicode="," horiz-adv-x="584" 
d="M129 144q1 74 35 118t131 43q160 0 160 -180q-1 -123 -43 -235t-90 -183h-177q41 67 73 153t36 130q-66 4 -96 42q-29 38 -29 112z" />
    <glyph glyph-name="hyphen" unicode="-" horiz-adv-x="786" 
d="M82 399v254h623v-254h-623z" />
    <glyph glyph-name="period" unicode="." horiz-adv-x="584" 
d="M455 144q0 -84 -39 -121q-38 -37 -128 -37t-124 40t-35 121q0 80 36 119t127 39t127 -38q36 -39 36 -123z" />
    <glyph glyph-name="slash" unicode="/" horiz-adv-x="1036" 
d="M242 -299h-254l690 1819h256z" />
    <glyph glyph-name="zero" unicode="0" horiz-adv-x="1280" 
d="M640 211q128 0 188 116q60 117 61 365q0 248 -61 364q-62 116 -190 115t-188 -117t-59 -363q0 -247 59 -365q62 -115 190 -115zM640 1413q278 1 410 -175q130 -176 130 -547t-130 -547t-410 -175q-280 -1 -410 175t-130 546t131 547q131 176 409 176z" />
    <glyph glyph-name="one" unicode="1" horiz-adv-x="1280" 
d="M584 0v928h-336v190q138 10 216 36t120 78t67 152h215v-1384h-282z" />
    <glyph glyph-name="two" unicode="2" horiz-adv-x="1204" 
d="M106 0v236q345 289 504 470q154 170 154 308q0 74 -50 112t-138 37q-148 0 -246 -145l-228 160q86 127 202 181t310 54t318 -100t123 -281q1 -133 -49 -235t-138 -193q-78 -85 -224 -209t-163 -137h619v-258h-994z" />
    <glyph glyph-name="three" unicode="3" horiz-adv-x="1204" 
d="M80 1196q161 217 476 217q160 0 264 -44q210 -88 210 -296q0 -271 -280 -340q136 -9 221 -103q84 -96 84 -241q1 -212 -139 -315t-384 -103q-174 0 -295 64t-171 160l227 155q39 -59 93 -93t162 -34q216 0 216 187q0 192 -254 192h-123v242h107q126 0 184 50t59 119
q0 148 -180 148q-97 -1 -154 -31t-98 -92z" />
    <glyph glyph-name="four" unicode="4" horiz-adv-x="1280" 
d="M758 471v543l-420 -543h420zM1028 229v-229h-270v229h-695v260l676 895h289v-913h170v-242h-170z" />
    <glyph glyph-name="five" unicode="5" horiz-adv-x="1204" 
d="M621 922q221 0 350 -119t129 -347t-145 -356q-145 -129 -416 -129q-339 0 -490 228l225 159q76 -135 261 -135q276 0 276 238q0 99 -72 157t-206 58t-205 -74h-197l82 782h809v-258h-584l-28 -243q94 39 211 39z" />
    <glyph glyph-name="six" unicode="6" horiz-adv-x="1204" 
d="M630 674q-144 0 -237 -76q0 -151 23 -225q50 -160 213 -160q89 -1 149 49t60 168t-59 180q-59 64 -149 64zM676 1171q-136 0 -197 -91t-78 -263q79 54 143 75t152 21q194 0 310 -119q114 -120 114 -344t-134 -351q-134 -128 -373 -128t-377 165q-136 168 -136 472
q0 392 147 598t421 207q274 0 403 -113l-160 -217q-99 88 -235 88z" />
    <glyph glyph-name="seven" unicode="7" horiz-adv-x="1280" 
d="M113 1126v258h1038v-172l-520 -1212h-316l510 1126h-712z" />
    <glyph glyph-name="eight" unicode="8" horiz-adv-x="1204" 
d="M603 195q125 0 179 52t54 133q0 80 -58 138t-176 113q-126 -55 -180 -113t-55 -140q0 -83 56 -133t180 -50zM809 1036q0 66 -48 111t-163 45t-160 -45t-45 -97t19 -82q48 -76 190 -132q207 89 207 200zM117 1033q-1 188 127 284t354 96t356 -93t131 -280
q0 -112 -106 -211q-46 -43 -143 -96q113 -53 168 -103q114 -103 114 -255q0 -192 -132 -298t-381 -106q-248 0 -385 101q-136 102 -136 303q0 124 70 216t186 144q-223 110 -223 298z" />
    <glyph glyph-name="nine" unicode="9" horiz-adv-x="1204" 
d="M588 1171q-112 0 -168 -61q-56 -62 -55 -168q0 -106 58 -168t173 -63q115 0 215 75q0 209 -55 298q-56 87 -168 87zM530 213q232 0 273 354q-61 -41 -123 -69t-150 -27q-213 0 -330 120q-116 121 -116 342t134 349q131 131 353 131q273 1 403 -169t130 -468
q0 -385 -146 -596q-147 -209 -427 -209t-414 115l157 215q100 -88 256 -88z" />
    <glyph glyph-name="colon" unicode=":" horiz-adv-x="584" 
d="M455 144q0 -84 -39 -121q-38 -37 -128 -37t-124 40t-35 121q0 80 36 119t127 39t127 -38q36 -39 36 -123zM455 889q-1 -85 -39 -123t-128 -37t-124 41t-35 120q0 80 36 120q36 39 127 39q91 1 127 -37t36 -123z" />
    <glyph glyph-name="semicolon" unicode=";" horiz-adv-x="584" 
d="M455 125q-1 -123 -43 -235t-90 -183h-177q41 67 73 153t36 130q-66 4 -96 42q-29 38 -29 112q1 74 35 118t131 43q160 0 160 -180zM455 889q-1 -85 -39 -123t-128 -37t-124 41t-35 120q0 80 36 120q36 39 127 39q91 1 127 -37t36 -123z" />
    <glyph glyph-name="less" unicode="&#x3c;" horiz-adv-x="1427" 
d="M131 481v203l1163 479v-225l-866 -354l866 -355v-225z" />
    <glyph glyph-name="equal" unicode="=" horiz-adv-x="1427" 
d="M133 233v205h1161v-205h-1161zM133 725v205h1161v-205h-1161z" />
    <glyph glyph-name="greater" unicode="&#x3e;" horiz-adv-x="1427" 
d="M131 4v225l866 355l-866 354v225l1163 -479v-203z" />
    <glyph glyph-name="question" unicode="?" horiz-adv-x="1071" 
d="M635 137q-1 -83 -39 -117t-128 -34t-125 36q-34 36 -34 118q0 81 36 117t127 36t127 -36t36 -120zM510 1413q238 -1 364 -99t125 -276q0 -184 -154 -315q-75 -64 -241 -145v-179h-272v301q156 64 232 110q144 87 145 208q0 153 -197 153q-90 0 -144 -35t-100 -110
l-233 139q140 248 475 248z" />
    <glyph glyph-name="at" unicode="@" horiz-adv-x="1950" 
d="M725 520q0 -276 213 -276q89 0 223 92v422q-114 69 -198 69q-238 0 -238 -307zM1004 -309q-278 1 -479 105t-311 302t-110 446t114 446q115 198 320 310t451 113q403 1 629 -223t227 -621q0 -349 -181 -484q-90 -69 -206 -69t-182 27q-65 27 -94 98q-142 -98 -276 -98
q-257 0 -356 225q-46 107 -46 250q0 228 113 366t315 138q113 0 231 -70v41h215v-696q0 -65 22 -81q24 -15 52 -15q126 -1 172 173q22 80 21 187q-1 329 -169 499t-485 171q-195 -1 -353 -89t-246 -244t-87 -355q0 -199 85 -353q172 -317 622 -317q231 0 424 45l39 -180
q-193 -47 -471 -47z" />
    <glyph glyph-name="A" unicode="A" horiz-adv-x="1337" 
d="M477 528h373l-186 572zM27 0l458 1384h367l459 -1384h-289l-92 281h-533l-90 -281h-280z" />
    <glyph glyph-name="B" unicode="B" horiz-adv-x="1298" 
d="M922 439q0 80 -63 119q-64 38 -236 38h-191v-346h143q167 0 228 16t91 54q28 39 28 119zM850 995q0 83 -58 113t-180 31h-180v-297h172q124 0 186 35q60 35 60 118zM1135 1061q0 -264 -258 -316q175 -24 254 -109t79 -235q0 -207 -143 -304t-397 -97h-520v1384h489
q265 0 381 -77t115 -246z" />
    <glyph glyph-name="C" unicode="C" horiz-adv-x="1333" 
d="M739 -29q-643 0 -643 721q0 370 164 546t469 175q375 0 526 -248l-219 -170q-49 74 -89 105q-81 63 -212 63q-171 0 -259 -109q-88 -110 -89 -354q0 -244 83 -362q84 -117 267 -117q123 0 191 47t125 125l223 -164q-88 -133 -218 -195t-319 -63z" />
    <glyph glyph-name="D" unicode="D" horiz-adv-x="1313" 
d="M936 695q0 179 -35 267t-121 126q-87 38 -252 38h-108v-868h108q165 0 252 38q84 39 120 129t36 270zM555 1384q244 0 389 -70t214 -222t69 -401q0 -484 -277 -622q-140 -69 -391 -69h-422v1384h418z" />
    <glyph glyph-name="E" unicode="E" horiz-adv-x="1149" 
d="M150 0v1384h899v-249h-617v-295h520v-250h-520v-332h617v-258h-899z" />
    <glyph glyph-name="F" unicode="F" horiz-adv-x="1104" 
d="M432 1126v-299h510v-249h-510v-578h-282v1384h890v-258h-608z" />
    <glyph glyph-name="G" unicode="G" horiz-adv-x="1415" 
d="M745 1163q-188 1 -273 -121t-85 -361q-1 -239 83 -349t269 -111q141 0 258 58v215h-270v249h553v-612q-96 -72 -240 -116t-292 -44q-324 -1 -488 169t-164 540q0 733 645 733q189 0 328 -63t213 -185l-217 -170q-53 87 -129 127t-191 41z" />
    <glyph glyph-name="H" unicode="H" horiz-adv-x="1409" 
d="M977 0v588h-545v-588h-282v1384h282v-538h545v538h283v-1384h-283z" />
    <glyph glyph-name="I" unicode="I" horiz-adv-x="872" 
d="M770 0h-668v217h193v950h-193v217h668v-217h-192v-950h192v-217z" />
    <glyph glyph-name="J" unicode="J" horiz-adv-x="924" 
d="M770 377q0 -220 -110 -314t-347 -94q-51 0 -142 15t-151 39l86 251q30 -16 101 -36t128 -19q57 0 91 20q61 37 61 214v931h283v-1007z" />
    <glyph glyph-name="K" unicode="K" horiz-adv-x="1280" 
d="M432 0h-282v1384h282v-540l453 540h329l-516 -596l553 -788h-352l-383 578l-84 -97v-481z" />
    <glyph glyph-name="L" unicode="L" horiz-adv-x="1038" 
d="M150 0v1384h282v-1126h582v-258h-864z" />
    <glyph glyph-name="M" unicode="M" horiz-adv-x="1667" 
d="M1245 0v930l-332 -578h-163l-328 578v-930h-272v1384h325l361 -657l364 657h318v-1384h-273z" />
    <glyph glyph-name="N" unicode="N" horiz-adv-x="1411" 
d="M426 0h-276v1384h366l469 -933v933h277v-1384h-332l-504 989v-989z" />
    <glyph glyph-name="O" unicode="O" horiz-adv-x="1364" 
d="M987 692q1 247 -69 359t-236 112t-236 -112t-69 -360q0 -248 71 -357q68 -113 234 -113t236 112t69 359zM86 693q0 343 145 531t453 189q308 0 451 -188q143 -189 143 -541t-152 -533q-154 -180 -452 -180t-444 189q-144 190 -144 533z" />
    <glyph glyph-name="P" unicode="P" horiz-adv-x="1239" 
d="M870 926q0 108 -64 161q-65 52 -233 52h-141v-465h115q157 0 215 22t84 72q24 50 24 158zM670 1384q237 0 364 -109t127 -357q1 -248 -117 -369t-382 -121h-230v-428h-282v1384h520z" />
    <glyph glyph-name="Q" unicode="Q" horiz-adv-x="1364" 
d="M987 695q1 244 -69 356t-238 112t-235 -112q-68 -112 -68 -359q-1 -247 69 -359t238 -112t236 114q67 116 67 360zM1020 -117q95 0 197 31l65 -227q-38 -11 -120 -23t-158 -12q-400 0 -461 330q-213 30 -335 204t-122 506q0 721 598 721q308 0 451 -188t143 -533
q0 -611 -428 -706q11 -54 43 -78t127 -25z" />
    <glyph glyph-name="R" unicode="R" horiz-adv-x="1284" 
d="M639 770q177 0 220 73q22 37 22 131t-53 129q-54 36 -177 36h-219v-369h207zM432 524v-524h-282v1384h503q267 0 391 -96t123 -315q-1 -177 -75 -282t-211 -134l370 -557h-323l-353 524h-143z" />
    <glyph glyph-name="S" unicode="S" horiz-adv-x="1229" 
d="M612 221q244 0 244 160q0 44 -22 77q-45 58 -221 104q-101 26 -201 58q-203 62 -280 196q-40 70 -40 179q0 198 133 308t381 110q360 0 508 -246l-215 -168q-57 88 -128 126t-168 38t-161 -35q-61 -36 -61 -108q1 -72 65 -107t183 -63t207 -55q309 -95 309 -392
q0 -211 -136 -321t-403 -111q-378 0 -540 258l217 166q49 -67 91 -101q90 -72 238 -73z" />
    <glyph glyph-name="T" unicode="T" horiz-adv-x="1204" 
d="M743 1126v-1126h-282v1126h-426v258h1134v-258h-426z" />
    <glyph glyph-name="U" unicode="U" horiz-adv-x="1438" 
d="M1288 578q0 -324 -132 -466t-436 -143q-304 0 -436 141q-134 138 -134 468v806h282v-786q0 -141 27 -222t86 -119t172 -38q160 0 225 85q64 86 64 290v790h282v-806z" />
    <glyph glyph-name="V" unicode="V" horiz-adv-x="1243" 
d="M786 0h-333l-426 1384h286l312 -1032l311 1032h281z" />
    <glyph glyph-name="W" unicode="W" horiz-adv-x="1833" 
d="M1432 0h-289l-232 915l-233 -915h-285l-350 1384h281l221 -903l229 903h279l231 -909l227 909h279z" />
    <glyph glyph-name="X" unicode="X" horiz-adv-x="1286" 
d="M29 0l463 694l-451 690h321l287 -466l297 466h311l-454 -684l452 -700h-317l-297 477l-301 -477h-311z" />
    <glyph glyph-name="Y" unicode="Y" horiz-adv-x="1188" 
d="M735 0h-284v522l-433 862h308l270 -579l276 579h297l-434 -856v-528z" />
    <glyph glyph-name="Z" unicode="Z" horiz-adv-x="1147" 
d="M72 0v238l635 888h-605v258h942v-227l-641 -899h658v-258h-989z" />
    <glyph glyph-name="bracketleft" unicode="[" horiz-adv-x="764" 
d="M154 -395v1884h548v-207h-309v-1470h309v-207h-548z" />
    <glyph glyph-name="backslash" unicode="\" horiz-adv-x="1036" 
d="M795 -299l-693 1819h256l691 -1819h-254z" />
    <glyph glyph-name="bracketright" unicode="]" horiz-adv-x="764" 
d="M61 -395v207h310v1470h-310v207h549v-1884h-549z" />
    <glyph glyph-name="asciicircum" unicode="^" horiz-adv-x="1300" 
d="M958 594l-307 557l-309 -557h-219l434 790h186l435 -790h-220z" />
    <glyph glyph-name="underscore" unicode="_" horiz-adv-x="1024" 
d="M-10 -256v102h1044v-102h-1044z" />
    <glyph glyph-name="grave" unicode="`" horiz-adv-x="1044" 
d="M494 1208l-299 361h315l188 -361h-204z" />
    <glyph glyph-name="a" unicode="a" horiz-adv-x="1139" 
d="M488 174q120 0 255 113v200l-131 -12q-138 -13 -200 -53t-62 -118t40 -104q42 -26 98 -26zM539 1079q244 0 353 -86t109 -280v-713h-237v109q-154 -140 -328 -140q-174 1 -263 93t-89 218t46 200q46 73 135 115q90 42 257 58l221 21v47q0 89 -53 121t-155 32
q-175 0 -234 -108l-201 129q110 184 439 184z" />
    <glyph glyph-name="b" unicode="b" 
d="M807 771q-51 81 -171 81t-233 -102v-459q46 -40 105 -65q58 -29 119 -29q111 1 171 85t60 246t-51 243zM717 1079q211 -1 309 -147t98 -404t-109 -408t-313 -151q-82 0 -175 36t-150 93l-35 -98h-197v1489h258v-524q143 114 314 114z" />
    <glyph glyph-name="c" unicode="c" horiz-adv-x="1059" 
d="M805 762q-67 92 -201 92t-190 -82t-56 -251q0 -170 58 -248t196 -78q60 0 110 17t95 75l195 -137q-123 -181 -392 -181q-268 0 -398 138q-130 139 -130 407t126 416t378 149q291 0 401 -180z" />
    <glyph glyph-name="d" unicode="d" 
d="M358 521q0 -324 211 -324q63 0 131 30t113 72v459q-37 34 -101 64t-124 30q-104 0 -167 -89t-63 -242zM92 520q0 264 115 412t325 147q75 -1 152 -31t129 -77v518h258v-1489h-237v102q-155 -133 -344 -133q-188 0 -293 143q-105 144 -105 408z" />
    <glyph glyph-name="e" unicode="e" horiz-adv-x="1143" 
d="M799 635q0 239 -209 239q-132 0 -184 -94q-26 -46 -41 -145h434zM618 195q77 0 134 19t100 73l192 -137q-63 -91 -163 -136t-275 -45q-260 -1 -387 135t-127 412q0 563 504 563q224 -1 342 -127t117 -368v-127h-697q8 -141 68 -201t192 -61z" />
    <glyph glyph-name="f" unicode="f" horiz-adv-x="659" 
d="M554 1294q-72 0 -100 -32t-28 -111v-102h213v-205h-213v-844h-258v844h-133v205h133v102q0 195 96 282q98 87 291 87q93 0 193 -25l-50 -225q-72 24 -144 24z" />
    <glyph glyph-name="g" unicode="g" 
d="M582 852q-94 0 -159 -86t-65 -236t58 -227q58 -76 149 -76q129 0 248 103v428q-106 94 -231 94zM1071 20q-1 -210 -129 -312t-389 -103q-261 0 -436 90l76 211q162 -76 329 -76t229 46t62 155v86q-127 -117 -314 -117t-297 138t-110 397q0 163 52 285q50 122 150 192
q102 67 241 67q85 -1 167 -37t138 -92l34 99h197v-1029z" />
    <glyph glyph-name="h" unicode="h" 
d="M752 1079q184 0 256 -99q71 -100 71 -280v-700h-258v578q1 166 -31 220t-110 54q-114 0 -277 -152v-700h-258v1489h258v-576q165 166 349 166z" />
    <glyph glyph-name="i" unicode="i" horiz-adv-x="549" 
d="M145 0v1049h258v-1049h-258zM418 1335q0 -73 -36 -102t-114 -29t-108 34q-29 34 -29 100q-1 66 31 97t110 31t112 -29t34 -102z" />
    <glyph glyph-name="j" unicode="j" horiz-adv-x="563" 
d="M418 -45q0 -188 -84 -269t-275 -81q-43 -1 -113 9t-108 21l56 224q76 -29 152 -29t96 48q18 48 18 159v1012h258v-1094zM432 1335q0 -73 -36 -102t-114 -29q-77 0 -107 34t-30 100q-1 66 31 97t110 31t112 -29t34 -102z" />
    <glyph glyph-name="k" unicode="k" horiz-adv-x="1100" 
d="M403 0h-258v1489h258v-852l353 412h299l-396 -441l418 -608h-293l-280 434l-101 -108v-326z" />
    <glyph glyph-name="l" unicode="l" horiz-adv-x="549" 
d="M145 0v1489h258v-1489h-258z" />
    <glyph glyph-name="m" unicode="m" horiz-adv-x="1790" 
d="M729 1079q131 1 194 -45t85 -133q92 91 170 135t182 43q152 -1 222 -87t71 -292v-700h-258v618q0 180 -45 216q-21 18 -74 18q-113 0 -248 -152v-700h-258v618q0 102 -9 147t-32 66t-78 21q-108 0 -248 -152v-700h-258v1049h258v-136q151 166 326 166z" />
    <glyph glyph-name="n" unicode="n" 
d="M760 1079q161 0 240 -88t79 -291v-700h-258v578q0 163 -29 219q-30 55 -112 55q-114 0 -277 -152v-700h-258v1049h258v-136q166 166 357 166z" />
    <glyph glyph-name="o" unicode="o" horiz-adv-x="1190" 
d="M358 522q0 -168 56 -248t181 -79q126 0 181 78q55 79 55 251q1 172 -53 251t-182 79t-182 -82q-56 -82 -56 -250zM596 -31q-504 0 -504 555t503 555t503 -557q0 -262 -121 -408q-122 -145 -381 -145z" />
    <glyph glyph-name="p" unicode="p" 
d="M403 291q101 -94 217 -94t177 90t61 242q0 151 -52 237t-159 86q-63 0 -129 -29t-115 -73v-459zM383 946q154 133 344 133q189 0 293 -140t104 -407q0 -169 -51 -298t-146 -197t-227 -68q-175 0 -297 109v-473h-258v1444h238v-103z" />
    <glyph glyph-name="q" unicode="q" 
d="M813 758q-100 94 -215 94q-114 0 -177 -89t-63 -243q0 -323 211 -323q63 0 131 30t113 72v459zM813 -395v479q-139 -115 -325 -115t-291 140t-105 407t114 415t324 148q98 -1 180 -41t130 -88l34 99h197v-1444h-258z" />
    <glyph glyph-name="r" unicode="r" horiz-adv-x="840" 
d="M715 1065q79 0 114 -21l-51 -247q-42 20 -106 20q-132 0 -269 -135v-682h-258v1049h258v-150q153 166 312 166z" />
    <glyph glyph-name="s" unicode="s" horiz-adv-x="1026" 
d="M692 287q0 46 -52 73q-58 26 -163 52q-209 46 -294 130t-85 220t106 227q108 90 314 90q296 0 414 -180l-193 -137q-69 106 -225 106q-82 0 -122 -28t-40 -69q0 -42 37 -67q38 -24 180 -59q141 -35 219 -79q158 -89 158 -267q0 -103 -54 -178q-108 -152 -368 -152
q-330 0 -448 183l192 135q78 -107 251 -107t173 107z" />
    <glyph glyph-name="t" unicode="t" horiz-adv-x="739" 
d="M506 -31q-182 1 -262 83t-80 265v527h-133v205h133v292h258v-292h244v-205h-244v-494q0 -98 31 -133t93 -35t134 29l45 -211q-102 -31 -219 -31z" />
    <glyph glyph-name="u" unicode="u" 
d="M813 0v135q-68 -74 -165 -120t-191 -46q-179 1 -249 99t-71 280v701h258v-578q0 -210 55 -251q29 -23 87 -23q116 0 276 151v701h258v-1049h-258z" />
    <glyph glyph-name="v" unicode="v" horiz-adv-x="1040" 
d="M637 0h-238l-372 1049h264l233 -691l232 691h258z" />
    <glyph glyph-name="w" unicode="w" horiz-adv-x="1565" 
d="M1257 0h-235l-236 668l-237 -668h-236l-286 1049h268l162 -676l235 676h195l237 -670l156 670h258z" />
    <glyph glyph-name="x" unicode="x" horiz-adv-x="1079" 
d="M743 0l-208 334l-218 -334h-286l362 518l-356 531h301l209 -332l215 332h285l-361 -517l363 -532h-306z" />
    <glyph glyph-name="y" unicode="y" horiz-adv-x="1085" 
d="M182 -170q62 0 106 35t91 145l27 62l-379 977h268l248 -670l254 670h262l-451 -1121q-57 -138 -109 -202q-51 -64 -121 -92t-178 -29q-108 0 -220 30l55 224q85 -29 147 -29z" />
    <glyph glyph-name="z" unicode="z" horiz-adv-x="930" 
d="M57 0v188l490 656h-477v205h786v-187l-491 -657h507v-205h-815z" />
    <glyph glyph-name="braceleft" unicode="{" horiz-adv-x="915" 
d="M784 -395q-220 0 -317 103q-96 105 -96 302v142q0 141 -59 221q-60 80 -171 80h-39v221h39q111 0 171 78t59 223v139q0 196 95 301t318 105h70v-207h-41q-117 1 -160 -47t-43 -166v-166q0 -134 -64 -232q-68 -95 -175 -141q107 -39 173 -137t66 -234v-165q0 -117 43 -165
t160 -48h41v-207h-70z" />
    <glyph glyph-name="bar" unicode="|" horiz-adv-x="801" 
d="M281 -395v1915h239v-1915h-239z" />
    <glyph glyph-name="braceright" unicode="}" horiz-adv-x="915" 
d="M61 -395v207h41q117 0 160 48t43 165v165q0 136 65 234q67 98 175 137q-111 46 -175 141t-65 232v166q0 118 -43 166t-160 47h-41v207h70q223 0 319 -104q95 -106 95 -302v-139q-1 -145 59 -223t170 -78h39v-221h-39q-110 0 -170 -80t-59 -221v-142q0 -198 -97 -302
t-317 -103h-70z" />
    <glyph glyph-name="asciitilde" unicode="~" horiz-adv-x="1386" 
d="M932 774q141 0 311 148v-222q-71 -54 -143 -92t-154 -39q-82 1 -148 25q-64 24 -125 54t-115 54t-123 25q-122 0 -292 -147v229q99 83 201 111q46 12 114 12t132 -24t118 -54q56 -28 114 -54t110 -26z" />
    <glyph glyph-name="uni00A0" unicode="&#xa0;" horiz-adv-x="492" 
 />
    <glyph glyph-name="exclamdown" unicode="&#xa1;" horiz-adv-x="584" 
d="M152 -395l34 1059h215l31 -1059h-280zM129 952q1 80 35 118t124 38t128 -34t39 -118q0 -84 -36 -120q-37 -35 -127 -35t-127 35q-36 36 -36 116z" />
    <glyph glyph-name="cent" unicode="&#xa2;" horiz-adv-x="1059" 
d="M358 508q0 -182 74 -256l133 600q-107 -9 -157 -86q-50 -76 -50 -258zM92 518q0 264 126 412t378 149h18l48 209h180l-54 -237q145 -49 209 -152l-192 -137q-29 37 -66 61l-139 -628h12q60 0 110 17t95 75l195 -137q-123 -181 -406 -181l-55 2l-51 -231h-183l60 266
q-285 107 -285 512z" />
    <glyph glyph-name="sterling" unicode="&#xa3;" horiz-adv-x="1280" 
d="M100 0v213q122 25 158 169q18 63 18 183h-151v189h137l-11 44q-42 128 -42 228q1 186 135 286t367 101q173 0 295 -62t186 -167l-217 -131q-39 63 -111 103t-172 40t-158 -54q-57 -56 -57 -136t44 -211l11 -41h379v-189h-370q0 -225 -117 -325h784v-240h-1108z" />
    <glyph glyph-name="currency" unicode="&#xa4;" horiz-adv-x="1280" 
d="M893 649q1 104 -75 177t-178 73t-178 -72t-77 -176q0 -104 75 -179t179 -75q65 1 125 35t94 92t35 125zM640 1073q132 0 234 -72l142 140l125 -125l-144 -137q72 -109 72 -231t-72 -232l144 -135l-125 -125l-142 139q-104 -72 -235 -72t-236 72l-141 -139l-123 125
l142 135q-72 116 -72 236t72 227l-142 137l123 125l141 -140q105 72 237 72z" />
    <glyph glyph-name="yen" unicode="&#xa5;" horiz-adv-x="1280" 
d="M1139 846v-178h-314l-45 -80v-31h359v-176h-359v-381h-282v381h-361v176h361v27l-47 84h-314v178h213l-305 538h307l291 -538l295 538h297l-307 -538h211z" />
    <glyph glyph-name="brokenbar" unicode="&#xa6;" horiz-adv-x="801" 
d="M281 -395v678h239v-678h-239zM281 842v678h239v-678h-239z" />
    <glyph glyph-name="section" unicode="&#xa7;" horiz-adv-x="1110" 
d="M774 486q0 34 -22 64t-83 71q-61 40 -105 67t-66 41q-82 -52 -122 -93t-40 -85q0 -43 68 -97t208 -139q70 41 116 89t46 82zM303 852q-149 109 -149 250q0 140 106 226t322 85q283 0 407 -160l-176 -131q-84 84 -227 84q-94 0 -134 -28t-40 -63q0 -36 48 -76
q48 -41 212 -143q165 -102 225 -158q121 -112 121 -236q0 -192 -211 -307q149 -115 149 -238q0 -161 -112 -243q-114 -81 -292 -81t-276 43q-96 43 -155 117l176 131q75 -84 233 -84q72 0 120 23t48 68t-74 99q-93 63 -234 148q-142 86 -220 170t-78 197q0 189 211 307z" />
    <glyph glyph-name="dieresis" unicode="&#xa8;" horiz-adv-x="1044" 
d="M438 1335q0 -73 -36 -102t-114 -29t-107 34t-29 100t31 98q31 30 109 30t112 -29t34 -102zM883 1335q-1 -73 -37 -102t-114 -29t-107 34t-29 100t31 98q31 30 109 30t112 -29t35 -102z" />
    <glyph glyph-name="copyright" unicode="&#xa9;" horiz-adv-x="1802" 
d="M926 170q-422 0 -422 442q0 216 100 331q102 114 318 114q132 0 210 -51q76 -53 134 -144l-176 -100q-36 52 -68 81t-102 29q-108 0 -154 -58t-47 -202q0 -142 48 -200t155 -58q64 0 103 28t77 79l180 -96q-69 -87 -117 -123q-98 -72 -239 -72zM901 -41q171 0 321 85
q150 88 236 238t86 324q0 176 -86 327t-235 237t-323 87q-174 0 -324 -88q-150 -89 -234 -237t-84 -324t88 -326q88 -151 234 -238q150 -85 321 -85zM900 -197q-218 0 -404 108t-294 295q-106 186 -106 404t106 404t294 292q188 107 406 107t402 -107q186 -105 293 -292
q107 -186 107 -404t-106 -404t-292 -294q-188 -109 -406 -109z" />
    <glyph glyph-name="ordfeminine" unicode="&#xaa;" horiz-adv-x="834" 
d="M285 1022q-1 -42 19 -58t71 -16t133 66v110l-68 -6q-90 -6 -122 -30t-33 -66zM391 1520q145 0 225 -50q78 -51 78 -192v-461h-174v57q-95 -75 -204 -75q-108 0 -166 59t-58 160q0 100 66 160t221 73l129 13v20q0 50 -28 68t-93 18q-66 0 -95 -21t-46 -51l-148 93
q79 129 293 129z" />
    <glyph glyph-name="guillemotleft" unicode="&#xab;" horiz-adv-x="1436" 
d="M481 53l-420 471l420 471h299l-420 -471l420 -471h-299zM1055 53l-420 471l420 471h299l-420 -471l420 -471h-299z" />
    <glyph glyph-name="logicalnot" unicode="&#xac;" horiz-adv-x="1427" 
d="M1087 324v477h-954v205h1161v-682h-207z" />
    <glyph glyph-name="uni00AD" unicode="&#xad;" horiz-adv-x="786" 
d="M82 399v254h623v-254h-623z" />
    <glyph glyph-name="registered" unicode="&#xae;" horiz-adv-x="1802" 
d="M793 682h96q98 0 115 26q18 26 18 73t-22 70t-103 23h-104v-192zM588 201v850h305q177 0 259 -63t83 -197q0 -185 -145 -246l239 -344h-250l-211 307h-75v-307h-205zM901 -41q171 0 321 85q150 88 236 238t86 324q0 176 -86 327t-235 237t-323 87q-174 0 -324 -88
q-150 -89 -234 -237t-84 -324t88 -326q88 -151 234 -238q150 -85 321 -85zM900 -197q-218 0 -404 108t-294 295q-106 186 -106 404t106 404t294 292q188 107 406 107t402 -107q186 -105 293 -292q107 -186 107 -404t-106 -404t-292 -294q-188 -109 -406 -109z" />
    <glyph glyph-name="macron" unicode="&#xaf;" horiz-adv-x="1044" 
d="M186 1255v185h672v-185h-672z" />
    <glyph glyph-name="degree" unicode="&#xb0;" horiz-adv-x="868" 
d="M434 1370q-56 0 -94 -38t-37 -92q-1 -52 37 -92t94 -40t94 40t37 92q0 54 -38 92q-37 38 -93 38zM745 1241q-1 -85 -41 -157t-114 -112q-70 -44 -154 -44t-158 43t-114 115t-41 155q0 129 92 219q91 90 219 90t220 -90q91 -91 91 -219z" />
    <glyph glyph-name="plusminus" unicode="&#xb1;" horiz-adv-x="1427" 
d="M133 0v205h1161v-205h-1161zM817 829v-477h-205v477h-479v205h479v479h205v-479h477v-205h-477z" />
    <glyph glyph-name="uni00B2" unicode="&#xb2;" horiz-adv-x="938" 
d="M92 647v182l108 78q226 159 284 217q55 58 55 113q0 78 -99 78t-168 -88l-196 121q133 172 377 172q179 0 261 -70t83 -180q1 -115 -69 -201q-36 -44 -131 -115t-165 -110h397v-197h-737z" />
    <glyph glyph-name="uni00B3" unicode="&#xb3;" horiz-adv-x="938" 
d="M805 901q0 -137 -102 -203t-256 -67q-154 0 -249 50t-139 120l199 102q64 -88 164 -88q72 -1 98 31t27 67q0 91 -141 91h-115v176h102q91 0 124 22q32 24 32 58t-28 54t-85 21q-104 0 -168 -78l-182 107q64 76 146 116t238 40t238 -68t83 -148q0 -80 -38 -126t-124 -74
q176 -44 176 -203z" />
    <glyph glyph-name="acute" unicode="&#xb4;" horiz-adv-x="1044" 
d="M553 1208h-205l189 361h315z" />
    <glyph glyph-name="mu" unicode="&#xb5;" horiz-adv-x="1202" 
d="M574 -31q-94 0 -185 70v-434h-258v1444h258v-750q28 -39 82 -69t115 -31q131 0 227 120v730h256v-1049h-238l-4 111q-51 -71 -105 -107t-148 -35z" />
    <glyph glyph-name="paragraph" unicode="&#xb6;" horiz-adv-x="1321" 
d="M1092 1282v-1677h-234v1677h-162v-1677h-233v1001q-203 22 -313 138t-109 312q-1 196 133 314t379 119h727v-207h-188z" />
    <glyph glyph-name="periodcentered" unicode="&#xb7;" horiz-adv-x="584" 
d="M455 743q0 -85 -39 -122q-38 -37 -128 -37t-124 40t-35 121q0 80 36 119t127 39q91 1 127 -37t36 -123z" />
    <glyph glyph-name="cedilla" unicode="&#xb8;" horiz-adv-x="1044" 
d="M466 -250q92 0 91 47q0 63 -180 72l88 170h170l-31 -62q62 -13 104 -60t42 -122q0 -190 -287 -190q-174 0 -264 45l69 145q106 -45 198 -45z" />
    <glyph glyph-name="uni00B9" unicode="&#xb9;" horiz-adv-x="938" 
d="M399 647v553h-229v152q179 6 232 60q29 30 49 91h200v-856h-252z" />
    <glyph glyph-name="ordmasculine" unicode="&#xba;" horiz-adv-x="842" 
d="M557 1167q0 109 -39 150q-40 41 -98 41t-96 -41t-39 -149q0 -108 31 -159q33 -48 105 -48t105 47q31 50 31 159zM421 799q-329 1 -329 361t328 360q170 0 250 -96t80 -266q0 -360 -329 -359z" />
    <glyph glyph-name="guillemotright" unicode="&#xbb;" horiz-adv-x="1436" 
d="M381 53h-299l420 471l-420 471h299l420 -471zM954 53h-299l420 471l-420 471h299l420 -471z" />
    <glyph glyph-name="onequarter" unicode="&#xbc;" horiz-adv-x="2095" 
d="M274 532v553h-229v152q178 6 232 60q30 29 49 91h200v-856h-252zM704 -51h-235l747 1489h238zM1642 332v276l-256 -276h256zM1874 160v-160h-232v160h-487v166l492 530h227v-524h115v-172h-115z" />
    <glyph glyph-name="onehalf" unicode="&#xbd;" horiz-adv-x="2095" 
d="M1229 0v182l108 78q231 164 285 218t54 112q0 78 -99 78t-168 -88l-196 121q133 172 377 172q180 -1 262 -71t82 -182t-68 -197q-38 -47 -132 -117t-165 -109h397v-197h-737zM272 532v553h-229v152q178 6 232 60q29 29 49 91h200v-856h-252zM641 -51h-235l747 1489h238z
" />
    <glyph glyph-name="threequarters" unicode="&#xbe;" horiz-adv-x="2095" 
d="M549 1144q-1 76 -109 76t-172 -78l-182 107q64 76 146 116t238 40q156 1 238 -67t83 -148q0 -80 -38 -126t-124 -75q176 -44 176 -203q-1 -138 -103 -204t-256 -66t-248 50q-95 50 -139 120l199 102q64 -88 164 -88q72 0 98 32t27 66q0 91 -141 91h-115v176h102
q94 0 125 22t31 57zM827 -51h-235l747 1489h238zM1689 332v276l-256 -276h256zM1921 160v-160h-232v160h-487v166l492 530h227v-524h115v-172h-115z" />
    <glyph glyph-name="questiondown" unicode="&#xbf;" horiz-adv-x="1071" 
d="M561 -395q-236 0 -363 103q-126 105 -126 298t152 324q71 65 243 155v179h272v-302q-37 -19 -112 -57q-75 -39 -131 -81t-96 -93q-38 -51 -38 -124t45 -117t143 -44t154 37q54 37 99 111l233 -139q-69 -123 -184 -187q-116 -63 -291 -63zM436 956q0 84 38 118t129 34
t125 -38t34 -118t-36 -116q-37 -35 -127 -35t-127 35q-36 36 -36 120z" />
    <glyph glyph-name="Agrave" unicode="&#xc0;" horiz-adv-x="1337" 
d="M477 528h373l-186 572zM27 0l458 1384h367l459 -1384h-289l-92 281h-533l-90 -281h-280zM672 1544l-299 361h315l188 -361h-204z" />
    <glyph glyph-name="Aacute" unicode="&#xc1;" horiz-adv-x="1337" 
d="M477 528h373l-186 572zM27 0l458 1384h367l459 -1384h-289l-92 281h-533l-90 -281h-280zM696 1544h-205l189 361h315z" />
    <glyph glyph-name="Acircumflex" unicode="&#xc2;" horiz-adv-x="1337" 
d="M477 528h373l-186 572zM27 0l458 1384h367l459 -1384h-289l-92 281h-533l-90 -281h-280zM809 1544l-146 174l-149 -174h-209l235 361h244l236 -361h-211z" />
    <glyph glyph-name="Atilde" unicode="&#xc3;" horiz-adv-x="1337" 
d="M477 528h373l-186 572zM27 0l458 1384h367l459 -1384h-289l-92 281h-533l-90 -281h-280zM821 1743q68 0 68 127h182q-10 -164 -75 -244q-66 -78 -189 -78q-101 0 -177 66q-26 23 -60 51q-35 29 -67 29q-67 0 -67 -127h-182q4 153 72 235t190 82q58 0 100 -22t86 -53
q42 -32 63 -49t56 -17z" />
    <glyph glyph-name="Adieresis" unicode="&#xc4;" horiz-adv-x="1337" 
d="M477 528h373l-186 572zM27 0l458 1384h367l459 -1384h-289l-92 281h-533l-90 -281h-280zM579 1671q1 -73 -35 -102t-114 -29t-108 34q-29 34 -29 100t31 98q32 30 110 30t112 -29t33 -102zM1024 1671q0 -73 -36 -102t-115 -29q-78 0 -107 34t-29 100t31 98q31 30 109 30
q79 0 113 -29t34 -102z" />
    <glyph glyph-name="Aring" unicode="&#xc5;" horiz-adv-x="1337" 
d="M477 528h373l-186 572zM27 0l458 1384h367l459 -1384h-289l-92 281h-533l-90 -281h-280zM751 1716q0 90 -87 90t-87 -90t87 -90t87 90zM660 1491q-116 0 -170 61q-56 60 -56 166t58 165t174 59t172 -61t57 -167q0 -106 -59 -166q-60 -57 -176 -57z" />
    <glyph glyph-name="AE" unicode="&#xc6;" horiz-adv-x="1810" 
d="M860 1135h-104l-209 -527h313v527zM860 0v360h-409l-144 -360h-287l555 1384h1135v-249h-567v-301h469v-250h-469v-326h567v-258h-850z" />
    <glyph glyph-name="Ccedilla" unicode="&#xc7;" horiz-adv-x="1333" 
d="M710 -250q92 0 91 47q0 63 -180 72l53 104q-578 38 -578 719q0 370 164 546t469 175q375 0 526 -248l-219 -170q-49 74 -89 105q-81 63 -212 63q-171 0 -259 -109q-88 -110 -89 -354q0 -244 83 -362q84 -117 267 -117q123 0 191 47t125 125l223 -164q-66 -96 -165 -164
t-263 -88q60 -13 102 -60t43 -122q0 -190 -286 -190q-172 0 -265 45l70 145q106 -45 198 -45z" />
    <glyph glyph-name="Egrave" unicode="&#xc8;" horiz-adv-x="1149" 
d="M150 0v1384h899v-249h-617v-295h520v-250h-520v-332h617v-258h-899zM566 1544l-299 361h315l188 -361h-204z" />
    <glyph glyph-name="Eacute" unicode="&#xc9;" horiz-adv-x="1149" 
d="M150 0v1384h899v-249h-617v-295h520v-250h-520v-332h617v-258h-899zM631 1544h-205l189 361h315z" />
    <glyph glyph-name="Ecircumflex" unicode="&#xca;" horiz-adv-x="1149" 
d="M150 0v1384h899v-249h-617v-295h520v-250h-520v-332h617v-258h-899zM740 1544l-146 174l-149 -174h-209l235 361h244l236 -361h-211z" />
    <glyph glyph-name="Edieresis" unicode="&#xcb;" horiz-adv-x="1149" 
d="M150 0v1384h899v-249h-617v-295h520v-250h-520v-332h617v-258h-899zM514 1671q0 -73 -36 -102t-114 -29t-107 34t-29 100t31 98q31 30 109 30t112 -29t34 -102zM959 1671q-1 -73 -37 -102t-114 -29t-107 34t-29 100t31 98q31 30 109 30t112 -29t35 -102z" />
    <glyph glyph-name="Igrave" unicode="&#xcc;" horiz-adv-x="872" 
d="M379 1544l-299 361h315l188 -361h-204zM770 0h-668v217h193v950h-193v217h668v-217h-192v-950h192v-217z" />
    <glyph glyph-name="Iacute" unicode="&#xcd;" horiz-adv-x="872" 
d="M770 0h-668v217h193v950h-193v217h668v-217h-192v-950h192v-217zM475 1544h-205l189 361h315z" />
    <glyph glyph-name="Icircumflex" unicode="&#xce;" horiz-adv-x="872" 
d="M770 0h-668v217h193v950h-193v217h668v-217h-192v-950h192v-217zM582 1544l-146 174l-149 -174h-209l235 361h244l236 -361h-211z" />
    <glyph glyph-name="Idieresis" unicode="&#xcf;" horiz-adv-x="872" 
d="M358 1671q0 -73 -36 -102t-114 -29t-107 34t-29 100t31 98q31 30 109 30t112 -29t34 -102zM803 1671q-1 -73 -37 -102t-114 -29t-107 34t-29 100t31 98q31 30 109 30t112 -29t35 -102zM770 0h-668v217h193v950h-193v217h668v-217h-192v-950h192v-217z" />
    <glyph glyph-name="Eth" unicode="&#xd0;" horiz-adv-x="1399" 
d="M1012 696q0 176 -38 263t-132 127q-93 40 -283 40h-127v-321h322v-225h-322v-322h127q185 0 278 40t135 130q40 92 40 268zM584 1384q261 0 416 -71t229 -222t74 -400q-1 -249 -75 -401t-224 -221t-418 -69h-436v580h-148v225h148v579h434z" />
    <glyph glyph-name="Ntilde" unicode="&#xd1;" horiz-adv-x="1411" 
d="M426 0h-276v1384h366l469 -933v933h277v-1384h-332l-504 989v-989zM852 1702q68 0 68 127h182q-12 -166 -76 -244t-188 -78q-67 -1 -109 21t-78 54q-35 32 -59 52t-58 19q-67 0 -67 -127h-182q5 154 73 236t189 81q61 1 103 -21q70 -36 140 -98q31 -22 62 -22z" />
    <glyph glyph-name="Ograve" unicode="&#xd2;" horiz-adv-x="1364" 
d="M987 692q1 247 -69 359t-236 112t-236 -112t-69 -360q0 -248 71 -357q68 -113 234 -113t236 112t69 359zM86 693q0 343 145 531t453 189q308 0 451 -188q143 -189 143 -541t-152 -533q-154 -180 -452 -180t-444 189q-144 190 -144 533zM670 1544l-299 361h315l188 -361
h-204z" />
    <glyph glyph-name="Oacute" unicode="&#xd3;" horiz-adv-x="1364" 
d="M987 692q1 247 -69 359t-236 112t-236 -112t-69 -360q0 -248 71 -357q68 -113 234 -113t236 112t69 359zM86 693q0 343 145 531t453 189q308 0 451 -188q143 -189 143 -541t-152 -533q-154 -180 -452 -180t-444 189q-144 190 -144 533zM735 1544h-205l189 361h315z" />
    <glyph glyph-name="Ocircumflex" unicode="&#xd4;" horiz-adv-x="1364" 
d="M987 692q1 247 -69 359t-236 112t-236 -112t-69 -360q0 -248 71 -357q68 -113 234 -113t236 112t69 359zM86 693q0 343 145 531t453 189q308 0 451 -188q143 -189 143 -541t-152 -533q-154 -180 -452 -180t-444 189q-144 190 -144 533zM838 1544l-146 174l-149 -174h-209
l235 361h244l236 -361h-211z" />
    <glyph glyph-name="Otilde" unicode="&#xd5;" horiz-adv-x="1364" 
d="M987 692q1 247 -69 359t-236 112t-236 -112t-69 -360q0 -248 71 -357q68 -113 234 -113t236 112t69 359zM86 693q0 343 145 531t453 189q308 0 451 -188q143 -189 143 -541t-152 -533q-154 -180 -452 -180t-444 189q-144 190 -144 533zM850 1743q68 0 68 127h182
q-12 -166 -76 -244t-188 -78q-63 0 -110 24t-65 40q-19 16 -39 34q-20 16 -39 32t-51 16q-67 0 -67 -127h-182q5 153 73 235t189 82q84 0 152 -50t94 -70q26 -21 59 -21z" />
    <glyph glyph-name="Odieresis" unicode="&#xd6;" horiz-adv-x="1364" 
d="M987 692q1 247 -69 359t-236 112t-236 -112t-69 -360q0 -248 71 -357q68 -113 234 -113t236 112t69 359zM86 693q0 343 145 531t453 189q308 0 451 -188q143 -189 143 -541t-152 -533q-154 -180 -452 -180t-444 189q-144 190 -144 533zM618 1671q0 -73 -36 -102t-114 -29
t-107 34t-29 100t31 98q31 30 109 30t112 -29t34 -102zM1063 1671q-1 -73 -37 -102t-114 -29t-107 34t-29 100t31 98q31 30 109 30t112 -29t35 -102z" />
    <glyph glyph-name="multiply" unicode="&#xd7;" horiz-adv-x="1427" 
d="M1151 0l-438 438l-439 -438l-145 145l438 437l-438 436l145 145l439 -436l438 436l145 -145l-438 -436l438 -437z" />
    <glyph glyph-name="Oslash" unicode="&#xd8;" horiz-adv-x="1364" 
d="M377 692q0 -155 26 -256l461 674q-70 53 -182 53q-166 0 -236 -112t-69 -359zM987 692q0 157 -29 262l-462 -678q67 -55 186 -55q166 0 236 112t69 359zM86 693q0 343 145 531t451 189q200 0 334 -84l108 160h199l-184 -270q139 -181 139 -534t-152 -534
q-153 -180 -444 -180q-207 0 -338 86l-117 -172h-200l194 285q-135 180 -135 523z" />
    <glyph glyph-name="Ugrave" unicode="&#xd9;" horiz-adv-x="1438" 
d="M1288 578q0 -324 -132 -466t-436 -143q-304 0 -436 141q-134 138 -134 468v806h282v-786q0 -141 27 -222t86 -119t172 -38q160 0 225 85q64 86 64 290v790h282v-806zM691 1544l-299 361h315l188 -361h-204z" />
    <glyph glyph-name="Uacute" unicode="&#xda;" horiz-adv-x="1438" 
d="M1288 578q0 -324 -132 -466t-436 -143q-304 0 -436 141q-134 138 -134 468v806h282v-786q0 -141 27 -222t86 -119t172 -38q160 0 225 85q64 86 64 290v790h282v-806zM756 1544h-205l189 361h315z" />
    <glyph glyph-name="Ucircumflex" unicode="&#xdb;" horiz-adv-x="1438" 
d="M1288 578q0 -324 -132 -466t-436 -143q-304 0 -436 141q-134 138 -134 468v806h282v-786q0 -141 27 -222t86 -119t172 -38q160 0 225 85q64 86 64 290v790h282v-806zM869 1544l-146 174l-149 -174h-209l235 361h244l236 -361h-211z" />
    <glyph glyph-name="Udieresis" unicode="&#xdc;" horiz-adv-x="1438" 
d="M1288 578q0 -324 -132 -466t-436 -143q-304 0 -436 141q-134 138 -134 468v806h282v-786q0 -141 27 -222t86 -119t172 -38q160 0 225 85q64 86 64 290v790h282v-806zM639 1671q1 -73 -35 -102t-114 -29t-108 34q-29 34 -29 100t31 98q32 30 110 30t112 -29t33 -102z
M1084 1671q0 -73 -36 -102t-115 -29q-78 0 -107 34t-29 100t31 98q31 30 109 30q79 0 113 -29t34 -102z" />
    <glyph glyph-name="Yacute" unicode="&#xdd;" horiz-adv-x="1188" 
d="M735 0h-284v522l-433 862h308l270 -579l276 579h297l-434 -856v-528zM629 1544h-205l189 361h315z" />
    <glyph glyph-name="Thorn" unicode="&#xde;" horiz-adv-x="1239" 
d="M547 473q155 -1 214 21t84 72t25 140q0 92 -30 140t-90 70t-177 22h-141v-465h115zM670 1184q237 0 364 -109t127 -357t-117 -370q-118 -121 -382 -121h-230v-227h-282v1384h282v-200h238z" />
    <glyph glyph-name="germandbls" unicode="&#xdf;" 
d="M780 1155q0 143 -166 143q-104 0 -158 -59t-53 -211v-1028h-258v1020q0 252 117 376q118 124 339 124t331 -92t110 -254q0 -122 -52 -196t-130 -106q122 -28 193 -138t71 -261q0 -250 -93 -377t-312 -127q-92 0 -193 31v227q86 -30 164 -30t121 63q43 64 43 195t-28 187
q-31 52 -94 74t-189 21v224q170 0 215 75q22 38 22 119z" />
    <glyph glyph-name="agrave" unicode="&#xe0;" horiz-adv-x="1139" 
d="M488 174q120 0 255 113v200l-131 -12q-138 -13 -200 -53t-62 -118t40 -104q42 -26 98 -26zM539 1079q244 0 353 -86t109 -280v-713h-237v109q-154 -140 -328 -140q-174 1 -263 93t-89 218t46 200q46 73 135 115q90 42 257 58l221 21v47q0 89 -53 121t-155 32
q-175 0 -234 -108l-201 129q110 184 439 184zM506 1208l-299 361h315l188 -361h-204z" />
    <glyph glyph-name="aacute" unicode="&#xe1;" horiz-adv-x="1139" 
d="M488 174q120 0 255 113v200l-131 -12q-138 -13 -200 -53t-62 -118t40 -104q42 -26 98 -26zM539 1079q244 0 353 -86t109 -280v-713h-237v109q-154 -140 -328 -140q-174 1 -263 93t-89 218t46 200q46 73 135 115q90 42 257 58l221 21v47q0 89 -53 121t-155 32
q-175 0 -234 -108l-201 129q110 184 439 184zM571 1208h-205l189 361h315z" />
    <glyph glyph-name="acircumflex" unicode="&#xe2;" horiz-adv-x="1139" 
d="M488 174q120 0 255 113v200l-131 -12q-138 -13 -200 -53t-62 -118t40 -104q42 -26 98 -26zM539 1079q244 0 353 -86t109 -280v-713h-237v109q-154 -140 -328 -140q-174 1 -263 93t-89 218t46 200q46 73 135 115q90 42 257 58l221 21v47q0 89 -53 121t-155 32
q-175 0 -234 -108l-201 129q110 184 439 184zM699 1208l-146 174l-149 -174h-209l235 361h244l236 -361h-211z" />
    <glyph glyph-name="atilde" unicode="&#xe3;" horiz-adv-x="1139" 
d="M488 174q120 0 255 113v200l-131 -12q-138 -13 -200 -53t-62 -118t40 -104q42 -26 98 -26zM539 1079q244 0 353 -86t109 -280v-713h-237v109q-154 -140 -328 -140q-174 1 -263 93t-89 218t46 200q46 73 135 115q90 42 257 58l221 21v47q0 89 -53 121t-155 32
q-175 0 -234 -108l-201 129q110 184 439 184zM717 1407q68 0 68 127h182q-10 -164 -75 -244q-66 -78 -189 -78q-101 0 -177 66q-26 23 -60 51q-35 29 -67 29q-67 0 -67 -127h-182q4 153 72 235t190 82q58 0 100 -22t86 -53q42 -32 63 -49t56 -17z" />
    <glyph glyph-name="adieresis" unicode="&#xe4;" horiz-adv-x="1139" 
d="M488 174q120 0 255 113v200l-131 -12q-138 -13 -200 -53t-62 -118t40 -104q42 -26 98 -26zM539 1079q244 0 353 -86t109 -280v-713h-237v109q-154 -140 -328 -140q-174 1 -263 93t-89 218t46 200q46 73 135 115q90 42 257 58l221 21v47q0 89 -53 121t-155 32
q-175 0 -234 -108l-201 129q110 184 439 184zM454 1335q0 -73 -36 -102t-114 -29t-107 34t-29 100t31 98q31 30 109 30t112 -29t34 -102zM899 1335q-1 -73 -37 -102t-114 -29t-107 34t-29 100t31 98q31 30 109 30t112 -29t35 -102z" />
    <glyph glyph-name="aring" unicode="&#xe5;" horiz-adv-x="1139" 
d="M488 174q120 0 255 113v200l-131 -12q-138 -13 -200 -53t-62 -118t40 -104q42 -26 98 -26zM539 1079q244 0 353 -86t109 -280v-713h-237v109q-154 -140 -328 -140q-174 1 -263 93t-89 218t46 200q46 73 135 115q90 42 257 58l221 21v47q0 89 -53 121t-155 32
q-175 0 -234 -108l-201 129q110 184 439 184zM626 1378q0 90 -87 90t-87 -90t87 -90t87 90zM770 1375q0 -107 -59 -165t-175 -57q-116 0 -172 61q-56 60 -55 166q-1 106 57 165t174 59t174 -60q56 -62 56 -169z" />
    <glyph glyph-name="ae" unicode="&#xe6;" horiz-adv-x="1786" 
d="M1442 635q0 239 -211 239q-113 0 -160 -65t-63 -174h434zM770 276q-12 38 -20 110t-7 101l-131 -12q-138 -13 -200 -53t-62 -123q0 -125 146 -125q145 0 274 102zM536 874q-169 0 -235 -108l-201 129q110 184 441 184q254 0 356 -123q121 123 345 123q224 1 340 -127
t116 -368v-127h-697q7 -140 67 -201t207 -61t220 92l193 -137q-64 -91 -162 -136t-258 -45q-299 0 -428 168q-199 -168 -408 -168q-170 1 -259 93t-89 245t105 239t333 107l221 21v47q0 85 -52 119q-53 34 -155 34z" />
    <glyph glyph-name="ccedilla" unicode="&#xe7;" horiz-adv-x="1059" 
d="M805 762q-67 92 -201 92t-190 -82t-56 -251q0 -170 58 -248t196 -78q60 0 110 17t95 75l195 -137q-105 -153 -318 -177q56 -17 94 -62q37 -48 37 -116q0 -190 -286 -190q-172 0 -265 45l70 145q106 -45 198 -45t91 47q0 63 -180 72l55 106q-416 56 -416 543
q0 264 126 412t378 149q291 0 401 -180z" />
    <glyph glyph-name="egrave" unicode="&#xe8;" horiz-adv-x="1143" 
d="M799 635q0 239 -209 239q-132 0 -184 -94q-26 -46 -41 -145h434zM618 195q77 0 134 19t100 73l192 -137q-63 -91 -163 -136t-275 -45q-260 -1 -387 135t-127 412q0 563 504 563q224 -1 342 -127t117 -368v-127h-697q8 -141 68 -201t192 -61zM547 1208l-299 361h315
l188 -361h-204z" />
    <glyph glyph-name="eacute" unicode="&#xe9;" horiz-adv-x="1143" 
d="M799 635q0 239 -209 239q-132 0 -184 -94q-26 -46 -41 -145h434zM618 195q77 0 134 19t100 73l192 -137q-63 -91 -163 -136t-275 -45q-260 -1 -387 135t-127 412q0 563 504 563q224 -1 342 -127t117 -368v-127h-697q8 -141 68 -201t192 -61zM612 1208h-205l189 361h315z
" />
    <glyph glyph-name="ecircumflex" unicode="&#xea;" horiz-adv-x="1143" 
d="M799 635q0 239 -209 239q-132 0 -184 -94q-26 -46 -41 -145h434zM618 195q77 0 134 19t100 73l192 -137q-63 -91 -163 -136t-275 -45q-260 -1 -387 135t-127 412q0 563 504 563q224 -1 342 -127t117 -368v-127h-697q8 -141 68 -201t192 -61zM736 1208l-146 174l-149 -174
h-209l235 361h244l236 -361h-211z" />
    <glyph glyph-name="edieresis" unicode="&#xeb;" horiz-adv-x="1143" 
d="M799 635q0 239 -209 239q-132 0 -184 -94q-26 -46 -41 -145h434zM618 195q77 0 134 19t100 73l192 -137q-63 -91 -163 -136t-275 -45q-260 -1 -387 135t-127 412q0 563 504 563q224 -1 342 -127t117 -368v-127h-697q8 -141 68 -201t192 -61zM506 1335q0 -73 -36 -102
t-114 -29t-107 34t-29 100t31 98q31 30 109 30t112 -29t34 -102zM951 1335q-1 -73 -37 -102t-114 -29t-107 34t-29 100t31 98q31 30 109 30t112 -29t35 -102z" />
    <glyph glyph-name="igrave" unicode="&#xec;" horiz-adv-x="549" 
d="M246 1208l-299 361h315l188 -361h-204zM145 0v1049h258v-1049h-258z" />
    <glyph glyph-name="iacute" unicode="&#xed;" horiz-adv-x="549" 
d="M332 1208h-205l189 361h315zM145 0v1049h258v-1049h-258z" />
    <glyph glyph-name="icircumflex" unicode="&#xee;" horiz-adv-x="549" 
d="M145 0v1049h258v-1049h-258zM424 1208l-146 174l-149 -174h-209l235 361h244l236 -361h-211z" />
    <glyph glyph-name="idieresis" unicode="&#xef;" horiz-adv-x="549" 
d="M194 1335q0 -73 -36 -102t-114 -29t-107 34t-29 100t31 98q31 30 109 30t112 -29t34 -102zM639 1335q-1 -73 -37 -102t-114 -29t-107 34t-29 100t31 98q31 30 109 30t112 -29t35 -102zM145 0v1049h258v-1049h-258z" />
    <glyph glyph-name="eth" unicode="&#xf0;" horiz-adv-x="1190" 
d="M831 522q-1 303 -237 303t-236 -305q0 -158 54 -242q56 -83 184 -83t182 84q53 84 53 243zM1098 499q0 -245 -127 -387t-375 -143q-248 0 -376 138q-128 139 -128 413q0 158 56 280t158 186t237 63q43 0 96 -19t92 -49q-15 38 -67 124t-89 128l-225 -94l-67 149l180 76
q-35 49 -184 156h274q47 -27 98 -78l187 78l69 -148l-131 -55q142 -145 232 -359t90 -459z" />
    <glyph glyph-name="ntilde" unicode="&#xf1;" 
d="M760 1079q161 0 240 -88t79 -291v-700h-258v578q0 163 -29 219q-30 55 -112 55q-114 0 -277 -152v-700h-258v1049h258v-136q166 166 357 166zM764 1407q68 0 68 127h182q-12 -166 -76 -244t-188 -78q-63 0 -110 24t-65 40q-19 16 -39 34q-20 16 -39 32t-51 16
q-67 0 -67 -127h-182q5 153 73 235t189 82q84 0 152 -50t94 -70q26 -21 59 -21z" />
    <glyph glyph-name="ograve" unicode="&#xf2;" horiz-adv-x="1190" 
d="M358 522q0 -168 56 -248t181 -79q126 0 181 78q55 79 55 251q1 172 -53 251t-182 79t-182 -82q-56 -82 -56 -250zM596 -31q-504 0 -504 555t503 555t503 -557q0 -262 -121 -408q-122 -145 -381 -145zM568 1208l-299 361h315l188 -361h-204z" />
    <glyph glyph-name="oacute" unicode="&#xf3;" horiz-adv-x="1190" 
d="M358 522q0 -168 56 -248t181 -79q126 0 181 78q55 79 55 251q1 172 -53 251t-182 79t-182 -82q-56 -82 -56 -250zM596 -31q-504 0 -504 555t503 555t503 -557q0 -262 -121 -408q-122 -145 -381 -145zM633 1208h-205l189 361h315z" />
    <glyph glyph-name="ocircumflex" unicode="&#xf4;" horiz-adv-x="1190" 
d="M358 522q0 -168 56 -248t181 -79q126 0 181 78q55 79 55 251q1 172 -53 251t-182 79t-182 -82q-56 -82 -56 -250zM596 -31q-504 0 -504 555t503 555t503 -557q0 -262 -121 -408q-122 -145 -381 -145zM746 1208l-146 174l-149 -174h-209l235 361h244l236 -361h-211z" />
    <glyph glyph-name="otilde" unicode="&#xf5;" horiz-adv-x="1190" 
d="M358 522q0 -168 56 -248t181 -79q126 0 181 78q55 79 55 251q1 172 -53 251t-182 79t-182 -82q-56 -82 -56 -250zM596 -31q-504 0 -504 555t503 555t503 -557q0 -262 -121 -408q-122 -145 -381 -145zM758 1407q68 0 68 127h182q-12 -166 -76 -244t-188 -78q-63 0 -110 24
t-65 40q-19 16 -39 34q-20 16 -39 32t-51 16q-67 0 -67 -127h-182q5 153 73 235t189 82q84 0 152 -50t94 -70q26 -21 59 -21z" />
    <glyph glyph-name="odieresis" unicode="&#xf6;" horiz-adv-x="1190" 
d="M358 522q0 -168 56 -248t181 -79q126 0 181 78q55 79 55 251q1 172 -53 251t-182 79t-182 -82q-56 -82 -56 -250zM596 -31q-504 0 -504 555t503 555t503 -557q0 -262 -121 -408q-122 -145 -381 -145zM516 1335q0 -73 -36 -102t-114 -29t-107 34t-29 100t31 98
q31 30 109 30t112 -29t34 -102zM961 1335q-1 -73 -37 -102t-114 -29t-107 34t-29 100t31 98q31 30 109 30t112 -29t35 -102z" />
    <glyph glyph-name="divide" unicode="&#xf7;" horiz-adv-x="1427" 
d="M592 2v252h246v-252h-246zM133 479v205h1161v-205h-1161zM592 911v252h246v-252h-246z" />
    <glyph glyph-name="oslash" unicode="&#xf8;" horiz-adv-x="1190" 
d="M596 195q125 0 180 78q55 79 55 219t-22 215l-326 -492q48 -20 113 -20zM358 522q0 -101 23 -184l328 493q-46 23 -113 23q-126 0 -182 -82t-56 -250zM1098 529q0 -560 -502 -560q-144 0 -248 45l-59 -90h-183l117 176q-131 142 -131 422q0 557 504 557q140 0 246 -47
l61 92h182l-118 -180q131 -146 131 -415z" />
    <glyph glyph-name="ugrave" unicode="&#xf9;" 
d="M813 0v135q-68 -74 -165 -120t-191 -46q-179 1 -249 99t-71 280v701h258v-578q0 -210 55 -251q29 -23 87 -23q116 0 276 151v701h258v-1049h-258zM580 1208l-299 361h315l188 -361h-204z" />
    <glyph glyph-name="uacute" unicode="&#xfa;" 
d="M813 0v135q-68 -74 -165 -120t-191 -46q-179 1 -249 99t-71 280v701h258v-578q0 -210 55 -251q29 -23 87 -23q116 0 276 151v701h258v-1049h-258zM645 1208h-205l189 361h315z" />
    <glyph glyph-name="ucircumflex" unicode="&#xfb;" 
d="M813 0v135q-68 -74 -165 -120t-191 -46q-179 1 -249 99t-71 280v701h258v-578q0 -210 55 -251q29 -23 87 -23q116 0 276 151v701h258v-1049h-258zM748 1208l-146 174l-149 -174h-209l235 361h244l236 -361h-211z" />
    <glyph glyph-name="udieresis" unicode="&#xfc;" 
d="M813 0v135q-68 -74 -165 -120t-191 -46q-179 1 -249 99t-71 280v701h258v-578q0 -210 55 -251q29 -23 87 -23q116 0 276 151v701h258v-1049h-258zM518 1335q0 -73 -36 -102t-114 -29t-107 34t-29 100t31 98q31 30 109 30t112 -29t34 -102zM963 1335q-1 -73 -37 -102
t-114 -29t-107 34t-29 100t31 98q31 30 109 30t112 -29t35 -102z" />
    <glyph glyph-name="yacute" unicode="&#xfd;" horiz-adv-x="1085" 
d="M182 -170q62 0 106 35t91 145l27 62l-379 977h268l248 -670l254 670h262l-451 -1121q-57 -138 -109 -202q-51 -64 -121 -92t-178 -29q-108 0 -220 30l55 224q85 -29 147 -29zM573 1208h-205l189 361h315z" />
    <glyph glyph-name="thorn" unicode="&#xfe;" 
d="M403 291q101 -94 217 -94t177 90t61 242q0 151 -52 237t-159 86q-63 0 -129 -29t-115 -73v-459zM1124 532q0 -169 -51 -298t-146 -197t-227 -68q-175 0 -297 109v-473h-258v1884h258v-533q127 123 321 123t297 -141t103 -406z" />
    <glyph glyph-name="ydieresis" unicode="&#xff;" horiz-adv-x="1085" 
d="M182 -170q62 0 106 35t91 145l27 62l-379 977h268l248 -670l254 670h262l-451 -1121q-57 -138 -109 -202q-51 -64 -121 -92t-178 -29q-108 0 -220 30l55 224q85 -29 147 -29zM465 1335q1 -73 -35 -102t-114 -29t-108 34q-29 34 -29 100t31 98q32 30 110 30t112 -29
t33 -102zM910 1335q0 -73 -36 -102t-115 -29q-78 0 -107 34t-29 100t31 98q31 30 109 30q79 0 113 -29t34 -102z" />
  </font>
</defs>
</svg>
